<svg xmlns="http://www.w3.org/2000/svg" viewBox="0 0 320 320" width="320" height="320" role="img" aria-label="Patrón de frutas coloridas">
  <defs>
    <linearGradient id="leaf" x1="0" x2="0" y1="0" y2="1">
      <stop offset="0" stop-color="#3fbf6a" />
      <stop offset="1" stop-color="#2f8f52" />
    </linearGradient>
  </defs>
  <rect width="320" height="320" fill="#fffef9" />

  <!-- Naranjas -->
  <g transform="translate(30,40)">
    <circle r="38" fill="#ffb347" stroke="#f49c20" stroke-width="6" />
    <rect x="-4" y="-58" width="8" height="18" rx="3" fill="#8a5a1e" />
    <path d="M0,-58 C14,-70 32,-70 38,-50" fill="url(#leaf)" />
  </g>
  <g transform="translate(220,260)">
    <circle r="32" fill="#ffb347" stroke="#f49c20" stroke-width="6" />
    <rect x="-3" y="-50" width="6" height="16" rx="3" fill="#8a5a1e" />
    <path d="M0,-50 C10,-60 20,-60 26,-44" fill="url(#leaf)" />
  </g>

  <!-- Manzanas -->
  <g transform="translate(250,70) rotate(-6)">
    <circle r="36" fill="#f76c6c" stroke="#d44a4a" stroke-width="6" />
    <rect x="-4" y="-55" width="8" height="18" rx="3" fill="#7f4a18" />
    <path d="M0,-55 C-10,-68 -30,-70 -38,-50" fill="url(#leaf)" />
  </g>
  <g transform="translate(90,250) rotate(4)">
    <circle r="28" fill="#f76c6c" stroke="#d44a4a" stroke-width="6" />
    <rect x="-3" y="-45" width="6" height="16" rx="3" fill="#7f4a18" />
    <path d="M0,-46 C-8,-60 -22,-60 -28,-44" fill="url(#leaf)" />
  </g>

  <!-- Kiwis -->
  <g transform="translate(150,60)">
    <ellipse rx="42" ry="30" fill="#c4a574" stroke="#9b7d46" stroke-width="6" />
    <ellipse rx="22" ry="16" fill="#7fbf6a" stroke="#4f8f42" stroke-width="4" />
    <circle r="3" fill="#2f3b1c" cx="0" cy="0" />
    <circle r="3" fill="#2f3b1c" cx="10" cy="-4" />
    <circle r="3" fill="#2f3b1c" cx="-12" cy="6" />
    <circle r="3" fill="#2f3b1c" cx="-2" cy="10" />
  </g>
  <g transform="translate(60,150) rotate(12)">
    <ellipse rx="34" ry="24" fill="#c4a574" stroke="#9b7d46" stroke-width="6" />
    <ellipse rx="18" ry="13" fill="#7fbf6a" stroke="#4f8f42" stroke-width="4" />
    <circle r="3" fill="#2f3b1c" cx="-6" cy="0" />
    <circle r="3" fill="#2f3b1c" cx="6" cy="6" />
    <circle r="3" fill="#2f3b1c" cx="4" cy="-8" />
  </g>

  <!-- Berries -->
  <g transform="translate(200,150)">
    <circle r="18" fill="#7d5cf7" stroke="#5936c7" stroke-width="5" />
    <circle r="14" fill="#6b45e3" cx="26" cy="10" />
    <circle r="16" fill="#8b6cf9" cx="-20" cy="-6" />
    <path d="M-5,-25 C-2,-38 10,-42 20,-30" fill="url(#leaf)" />
  </g>
  <g transform="translate(150,230)">
    <circle r="16" fill="#7d5cf7" stroke="#5936c7" stroke-width="5" />
    <circle r="12" fill="#6b45e3" cx="22" cy="6" />
    <path d="M-4,-22 C-2,-32 8,-36 16,-28" fill="url(#leaf)" />
  </g>

  <!-- Limones -->
  <g transform="translate(270,190) rotate(-18)">
    <ellipse rx="32" ry="22" fill="#ffef6f" stroke="#d4c34f" stroke-width="6" />
    <rect x="-3" y="-40" width="6" height="14" rx="2.5" fill="#7f4a18" />
    <path d="M0,-40 C10,-52 22,-52 26,-36" fill="url(#leaf)" />
  </g>
  <g transform="translate(110,110) rotate(10)">
    <ellipse rx="26" ry="18" fill="#ffef6f" stroke="#d4c34f" stroke-width="6" />
    <rect x="-3" y="-34" width="6" height="12" rx="2.5" fill="#7f4a18" />
    <path d="M0,-34 C10,-44 18,-44 22,-30" fill="url(#leaf)" />
  </g>
</svg>
